# xmcd CD database file
#
# Track frame offsets:
#	150
#	14362
#	26359
#	42778
#	59637
#	76618
#	91717
#	106364
#	121006
#	135581
#	147761
#	163725
#	177562
#
# Disc length: 2554 seconds
#
# Revision: 3
# Processed by: cddbd v1.5.2PL0 Copyright (c) Steve Scherf et al.
# Submitted via: CDex 1.84
#
DISCID=9c09f80d
DTITLE=Adam Brand - My Side Of The Street
DYEAR=2014
DGENRE=Country
TTITLE0=My Side Of The Street
TTITLE1=Doing It
TTITLE2=What Your Love Looks Like
TTITLE3=One Can Be A Lot
TTITLE4=Under The Sun
TTITLE5=Stupid What I Do To Me
TTITLE6=Put 'Em On Me
TTITLE7=Girls These Days
TTITLE8=Hearts I Leave Behind
TTITLE9=Right On The Money
TTITLE10=Adam Brand And Jasmine Rae - Quit This Time
TTITLE11=Bet Your Mama
TTITLE12=Most People I Know Think That I'm Crazy
EXTD=YEAR: 2014
EXTT0=
EXTT1=
EXTT2=
EXTT3=
EXTT4=
EXTT5=
EXTT6=
EXTT7=
EXTT8=
EXTT9=
EXTT10=
EXTT11=
EXTT12=
PLAYORDER=
